<svg width="12" height="33" viewBox="0 0 22 43" fill="none" xmlns="http://www.w3.org/2000/svg">
<path d="M1.68744 20.968C1.47093 21.0103 1.31901 21.2061 1.33186 21.4264C1.3447 21.6466 1.51836 21.8234 1.73833 21.8403C3.77239 21.9959 5.43184 23.1504 6.79137 24.8929C8.15389 26.6392 9.18627 28.9423 9.95575 31.3028C11.496 36.0278 11.9436 40.8559 11.9436 41.5703C11.9436 41.8138 12.141 42.0112 12.3845 42.0112C12.6279 42.0112 12.8253 41.8138 12.8253 41.5703C12.8253 40.559 13.2438 36.0119 14.5379 31.497C15.1844 29.2415 16.0424 27.0196 17.1596 25.2583C18.2797 23.4923 19.626 22.2421 21.2309 21.8275C21.4217 21.7782 21.5567 21.6083 21.5614 21.4112C21.5661 21.2142 21.4394 21.0379 21.2512 20.9796C18.4707 20.1177 16.5505 18.209 15.2263 14.9561C13.8921 11.6785 13.1763 7.06377 12.8246 0.854464C12.8117 0.626088 12.6262 0.445539 12.3976 0.438725C12.1689 0.431911 11.9731 0.601096 11.9466 0.828297C11.2297 6.97186 10.0768 11.7507 8.38391 15.1266C6.69658 18.4915 4.49785 20.419 1.68744 20.968Z" fill="url(#paint0_linear_4027_363)" stroke="#C21C37" stroke-width="0.881731" stroke-linejoin="round"/>
<defs>
<linearGradient id="paint0_linear_4027_363" x1="11.4463" y1="0.879395" x2="11.4463" y2="41.5703" gradientUnits="userSpaceOnUse">
<stop stop-color="#D6D6D6"/>
<stop offset="1" stop-color="#393939"/>
</linearGradient>
</defs>
</svg>
