<?xml version="1.0" encoding="UTF-8"?>
<svg id="Calque_2" data-name="Calque 2" xmlns="http://www.w3.org/2000/svg" viewBox="0 0 886.85 908">
  <defs>
  </defs>
  <g id="Calque_1-2" data-name="Calque 1">
    <path class="cls-1" d="M5.43,7.75c2.99,4.26,72.16,104.95,153.73,223.75,81.56,118.8,157,228.66,167.64,244.15,10.64,15.48,19.34,28.46,19.34,28.84s-3.96,5.26-8.8,10.85c-4.84,5.59-18.48,21.41-30.31,35.16-11.83,13.75-31.76,36.92-44.3,51.5-12.54,14.58-34.6,40.22-49.03,57-14.42,16.78-40.36,46.93-57.64,67.02-53.44,62.13-61.15,71.1-101.83,118.48-21.72,25.3-42.55,49.49-46.29,53.76s-6.79,8.2-6.79,8.75c0,.64,13.64,.99,38.44,.99h38.44l42.26-49.25c23.24-27.09,46.17-53.75,50.95-59.25,10.34-11.89,89.17-103.61,95.79-111.46,2.54-3,6.22-7.28,8.19-9.5,1.97-2.22,17.48-20.24,34.46-40.04,16.99-19.8,31.35-36.48,31.92-37.08,.57-.59,9.56-11.05,19.98-23.25,10.42-12.19,19.27-22.17,19.66-22.17s53.93,77.51,118.97,172.25c65.04,94.74,119.42,173.93,120.84,175.98l2.58,3.73,131.86,.02c108.43,.02,131.77-.21,131.35-1.29-.44-1.15-63.61-93.29-225.68-329.19-116.67-169.82-132.19-192.64-131.74-193.79,.43-1.13,16.32-19.71,120.8-141.29,17.92-20.85,42.63-49.62,54.9-63.92s24.67-28.7,27.54-32c2.87-3.3,17.97-20.85,33.56-39,15.58-18.15,42.08-48.99,58.88-68.53,16.8-19.54,31.16-36.31,31.91-37.25,1.29-1.62-.9-1.72-37.67-1.72h-39.04l-17.37,20.25c-23.11,26.95-64.89,75.55-76.76,89.28-5.24,6.07-11.78,13.69-14.53,16.95-2.75,3.25-8.18,9.54-12.06,13.97s-23.44,27.18-43.46,50.55c-20.02,23.38-36.68,42.72-37.02,43-.34,.28-4.63,5.25-9.54,11.06-8.59,10.16-17.32,20.33-57.4,66.8-17.59,20.4-18.49,21.28-19.97,19.4-.85-1.08-52.4-76.05-114.55-166.6L264.64,.02H132.32S0,0,0,0L5.43,7.75M108.7,61.74c.99,1.52,25.72,36.96,54.94,78.76,55.42,79.28,273.21,390.99,413.28,591.5,44.76,64.07,81.92,117.07,82.59,117.76,.95,.99,13.99,1.2,60.89,1l59.68-.26-156.17-223.5c-85.9-122.92-210.26-300.9-276.36-395.5L227.37,59.5l-60.24-.26-60.24-.26,1.8,2.76"/>
    <path class="cls-2" d="M5.43,7.75c2.99,4.26,72.16,104.95,153.73,223.75,81.56,118.8,157,228.66,167.64,244.15,10.64,15.48,19.34,28.46,19.34,28.84s-3.96,5.26-8.8,10.85c-4.84,5.59-18.48,21.41-30.31,35.16-11.83,13.75-31.76,36.92-44.3,51.5-12.54,14.58-34.6,40.22-49.03,57-14.42,16.78-40.36,46.93-57.64,67.02-53.44,62.13-61.15,71.1-101.83,118.48-21.72,25.3-42.55,49.49-46.29,53.76s-6.79,8.2-6.79,8.75c0,.64,13.64,.99,38.44,.99h38.44l42.26-49.25c23.24-27.09,46.17-53.75,50.95-59.25,10.34-11.89,89.17-103.61,95.79-111.46,2.54-3,6.22-7.28,8.19-9.5,1.97-2.22,17.48-20.24,34.46-40.04,16.99-19.8,31.35-36.48,31.92-37.08,.57-.59,9.56-11.05,19.98-23.25,10.42-12.19,19.27-22.17,19.66-22.17s53.93,77.51,118.97,172.25c65.04,94.74,119.42,173.93,120.84,175.98l2.58,3.73,131.86,.02c108.43,.02,131.77-.21,131.35-1.29-.44-1.15-63.61-93.29-225.68-329.19-116.67-169.82-132.19-192.64-131.74-193.79,.43-1.13,16.32-19.71,120.8-141.29,17.92-20.85,42.63-49.62,54.9-63.92s24.67-28.7,27.54-32c2.87-3.3,17.97-20.85,33.56-39,15.58-18.15,42.08-48.99,58.88-68.53,16.8-19.54,31.16-36.31,31.91-37.25,1.29-1.62-.9-1.72-37.67-1.72h-39.04l-17.37,20.25c-23.11,26.95-64.89,75.55-76.76,89.28-5.24,6.07-11.78,13.69-14.53,16.95-2.75,3.25-8.18,9.54-12.06,13.97s-23.44,27.18-43.46,50.55c-20.02,23.38-36.68,42.72-37.02,43-.34,.28-4.63,5.25-9.54,11.06-8.59,10.16-17.32,20.33-57.4,66.8-17.59,20.4-18.49,21.28-19.97,19.4-.85-1.08-52.4-76.05-114.55-166.6L264.64,.02H132.32S0,0,0,0L5.43,7.75M108.7,61.74c.99,1.52,25.72,36.96,54.94,78.76,55.42,79.28,273.21,390.99,413.28,591.5,44.76,64.07,81.92,117.07,82.59,117.76,.95,.99,13.99,1.2,60.89,1l59.68-.26-156.17-223.5c-85.9-122.92-210.26-300.9-276.36-395.5L227.37,59.5l-60.24-.26-60.24-.26,1.8,2.76"/>
  </g>
</svg>