<?xml version="1.0" encoding="UTF-8"?>
<svg id="Calque_2" data-name="Calque 2" xmlns="http://www.w3.org/2000/svg" viewBox="0 0 81.18 58.41">
  <g id="Calque_2-2" data-name="Calque 2">
    <g>
      <path d="M50.28,16.35c1.15-2.49,2.46-6.32,2.38-7.88,.46,2.54,2.21,7.5,3.48,9.96-2.08-1.26-2.01,5.02-.47,5.89,3.61,2.06,15.48-12.7,25.52-24.33-3.36,3.89-7,11.62-8.29,17.86-1.77-7.76-13.62,11.06-15.39,18.12,.21-7.59-5.7-3.61-11.05,13.68,2.78-15.29,10.64-23.72,11.48-18.68,4.21-5.55,3.28-7.1,3.28-7.1,0,0-3.44,2.59-6.23,1.17-1.88-.96-2.48-5.77-.92-7.83,.2,.33-.97-3.02-.97-3.02-.3,2.27-.85,2.99-1.61,3.57-6.72,5.05-12.73,14.22-6.64,22.02-3.31,2.46-3.96,11.4-4.27,18.63-.47-5.31,1.3-17.27,2.67-18.52-7.48-16.3,6.76-22.95,7.03-23.53Z"/>
      <path d="M30.9,16.35c-1.15-2.49-2.46-6.32-2.38-7.88-.46,2.54-2.21,7.5-3.48,9.96,2.08-1.26,2.01,5.02,.47,5.89C21.9,26.39,10.04,11.62,0,0,3.36,3.89,7,11.62,8.29,17.86c1.77-7.76,13.62,11.06,15.39,18.12-.21-7.59,5.7-3.61,11.05,13.68-2.78-15.29-10.64-23.72-11.48-18.68-4.21-5.55-3.28-7.1-3.28-7.1,0,0,3.44,2.59,6.23,1.17,1.88-.96,2.48-5.77,.92-7.83-.2,.33,.97-3.02,.97-3.02,.3,2.27,.85,2.99,1.61,3.57,6.72,5.05,12.73,14.22,6.64,22.02,3.31,2.46,3.96,11.4,4.27,18.63,.47-5.31-1.3-17.27-2.67-18.52,7.48-16.3-6.76-22.95-7.03-23.53Z"/>
    </g>
  </g>
</svg>